<?xml version="1.0" encoding="UTF-8" standalone="no"?>
<svg
   xmlns:dc="http://purl.org/dc/elements/1.1/"
   xmlns:cc="http://creativecommons.org/ns#"
   xmlns:rdf="http://www.w3.org/1999/02/22-rdf-syntax-ns#"
   xmlns:svg="http://www.w3.org/2000/svg"
   xmlns="http://www.w3.org/2000/svg"
   xmlns:xlink="http://www.w3.org/1999/xlink"
   xmlns:sodipodi="http://sodipodi.sourceforge.net/DTD/sodipodi-0.dtd"
   xmlns:inkscape="http://www.inkscape.org/namespaces/inkscape"
   viewBox="0 0 213.22 149.89"
   version="1.1"
   id="svg294"
   sodipodi:docname="gameDev.svg"
   inkscape:version="0.92.1 r15371">
  <metadata
     id="metadata298">
    <rdf:RDF>
      <cc:Work
         rdf:about="">
        <dc:format>image/svg+xml</dc:format>
        <dc:type
           rdf:resource="http://purl.org/dc/dcmitype/StillImage" />
      </cc:Work>
    </rdf:RDF>
  </metadata>
  <sodipodi:namedview
     pagecolor="#ffffff"
     bordercolor="#666666"
     borderopacity="1"
     objecttolerance="10"
     gridtolerance="10"
     guidetolerance="10"
     inkscape:pageopacity="0"
     inkscape:pageshadow="2"
     inkscape:window-width="1366"
     inkscape:window-height="705"
     id="namedview296"
     showgrid="false"
     inkscape:zoom="0.56"
     inkscape:cx="-127.80685"
     inkscape:cy="17.989246"
     inkscape:window-x="-8"
     inkscape:window-y="-8"
     inkscape:window-maximized="1"
     inkscape:current-layer="svg294" />
  <defs
     id="defs4">
    <linearGradient
       inkscape:collect="always"
       id="linearGradient8746">
      <stop
         style="stop-color:#f4d56c;stop-opacity:1"
         offset="0"
         id="stop8742" />
      <stop
         style="stop-color:#fefcf4;stop-opacity:1"
         offset="1"
         id="stop8744" />
    </linearGradient>
    <style
       id="style2">.cls-1{isolation:isolate;}.cls-2{fill:#2c4482;}.cls-3{opacity:0.2;mix-blend-mode:multiply;}.cls-4{fill:#1c1c42;}.cls-5{fill:#283d54;}.cls-6{fill:#2c2b4f;}.cls-7{fill:#223b72;}.cls-8{fill:#ffdb8c;}.cls-11,.cls-25,.cls-9{fill:#575370;}.cls-10{opacity:0.3;}.cls-11{opacity:0.5;}.cls-12,.cls-13{fill:#413e5e;}.cls-13{opacity:0.4;}.cls-14{fill:#ffc2b0;}.cls-15{fill:#ffb8bc;}.cls-16{fill:#028fcc;}.cls-17{fill:#4a245e;}.cls-18{fill:#8ac9ff;}.cls-19{fill:#ff808c;}.cls-20{fill:#1d3570;}.cls-21{fill:#ffba99;}.cls-22{fill:none;stroke:#312220;stroke-linecap:round;stroke-linejoin:round;stroke-width:0.56px;}.cls-23{fill:#0485b2;}.cls-24{fill:#323441;}.cls-25{opacity:0.6;}</style>
    <radialGradient
       inkscape:collect="always"
       xlink:href="#linearGradient8746"
       id="radialGradient8748"
       cx="115.55772"
       cy="77.65604"
       fx="115.55772"
       fy="77.65604"
       r="156.5"
       gradientTransform="matrix(1,0,0,1.0031949,0,-0.24810236)"
       gradientUnits="userSpaceOnUse" />
  </defs>
  <title
     id="title6">Asset 5</title>
  <path
     style="opacity:1;fill:url(#radialGradient8748);fill-opacity:1;stroke:none;stroke-width:9.88035774;stroke-linecap:round;stroke-miterlimit:4;stroke-dasharray:none;stroke-dashoffset:0;stroke-opacity:1"
     id="path8707"
     sodipodi:type="arc"
     sodipodi:cx="115.55747"
     sodipodi:cy="77.656044"
     sodipodi:rx="151.55957"
     sodipodi:ry="152.05981"
     sodipodi:start="0"
     sodipodi:end="6.2800437"
     sodipodi:open="true"
     d="M 267.11704,77.656044 A 151.55957,152.05981 0 0 1 115.67651,229.71581 151.55957,152.05981 0 0 1 -36.001911,77.8949 151.55957,152.05981 0 0 1 115.20037,-74.403348 151.55957,152.05981 0 0 1 267.11629,77.178333" />
  <g
     class="cls-1"
     id="g292"
     transform="matrix(1.4945169,0,0,1.4945169,-53.35058,-27.123734)"
     style="isolation:isolate">
    <g
       id="Layer_2"
       data-name="Layer 2">
      <g
         id="Layer_1-2"
         data-name="Layer 1">
        <path
           class="cls-2"
           d="m 141.22,93 -1.91,40.9 a 16.36,16.36 0 0 1 -11.71,14.69 v 0 a 16.36,16.36 0 0 1 -20,-10.13 L 96.17,106.88 Z"
           id="path8"
           inkscape:connector-curvature="0"
           style="fill:#2c4482" />
        <g
           class="cls-3"
           id="g14"
           style="opacity:0.2;mix-blend-mode:multiply">
          <polygon
             class="cls-4"
             points="141.22,92.97 138.55,93.8 140.8,101.94 "
             id="polygon10"
             style="fill:#1c1c42" />
          <path
             class="cls-4"
             d="m 114.08,135.17 -14.7,-19.39 8.2,22.65 a 16.36,16.36 0 0 0 30.44,0.85 17.36,17.36 0 0 1 -23.94,-4.11 z"
             id="path12"
             inkscape:connector-curvature="0"
             style="fill:#1c1c42" />
        </g>
        <rect
           class="cls-2"
           x="46.349998"
           y="63.330002"
           width="67.410004"
           height="49.740002"
           transform="rotate(14.12,80.077855,88.21598)"
           id="rect16"
           style="fill:#2c4482" />
        <rect
           class="cls-2"
           x="46.68"
           y="65.18"
           width="67.410004"
           height="43.419998"
           transform="rotate(14.12,80.407321,86.904443)"
           id="rect18"
           style="fill:#2c4482" />
        <circle
           class="cls-2"
           cx="117.42"
           cy="95.809998"
           r="23.969999"
           transform="rotate(-81.52,117.4144,95.807406)"
           id="circle20"
           style="fill:#2c4482" />
        <rect
           class="cls-2"
           x="115.75"
           y="63.470001"
           width="17.219999"
           height="6.0799999"
           rx="3.04"
           transform="rotate(14.12,124.36936,66.538972)"
           id="rect22"
           style="fill:#2c4482" />
        <circle
           class="cls-5"
           cx="89.75"
           cy="111.64"
           r="14.22"
           transform="rotate(-21.68,89.744205,111.6293)"
           id="circle24"
           style="fill:#283d54" />
        <circle
           class="cls-2"
           cx="90.650002"
           cy="108.06"
           r="14.22"
           transform="rotate(-30.42,90.643284,108.04754)"
           id="circle26"
           style="fill:#2c4482" />
        <path
           class="cls-2"
           d="m 108.69,75.57 3.46,-7.15 a 8,8 0 0 1 7,-4.53 v 0 a 19.5,19.5 0 0 1 11.53,3.42 l 0.94,0.64 a 8,8 0 0 1 3.48,6.8 l -0.18,7.43 z"
           id="path28"
           inkscape:connector-curvature="0"
           style="fill:#2c4482" />
        <circle
           class="cls-6"
           cx="116.68"
           cy="94.559998"
           r="21.709999"
           id="circle30"
           style="fill:#2c2b4f" />
        <circle
           class="cls-7"
           cx="116.68"
           cy="94.559998"
           r="21.709999"
           id="circle32"
           style="fill:#223b72" />
        <ellipse
           class="cls-2"
           cx="117.05"
           cy="95.589996"
           rx="20.809999"
           ry="21.1"
           transform="rotate(-75.88,117.04576,95.590101)"
           id="ellipse34"
           style="fill:#2c4482" />
        <path
           class="cls-2"
           d="M 134.24,84.65 A 20.47,20.47 0 0 1 95.77,97.79 20.47,20.47 0 1 0 134.24,84.65 Z"
           id="path36"
           inkscape:connector-curvature="0"
           style="fill:#2c4482" />
        <circle
           class="cls-2"
           cx="90.650002"
           cy="108.06"
           r="11.08"
           transform="rotate(-3.22,90.783224,108.12399)"
           id="circle38"
           style="fill:#2c4482" />
        <circle
           class="cls-2"
           cx="89.809998"
           cy="106.65"
           r="8.75"
           transform="rotate(-86.83,89.798683,106.64612)"
           id="circle40"
           style="fill:#2c4482" />
        <path
           class="cls-6"
           d="m 123.58,86.55 a 4.65,4.65 0 1 1 -3.38,-5.64 4.66,4.66 0 0 1 3.38,5.64 z"
           id="path42"
           inkscape:connector-curvature="0"
           style="fill:#2c2b4f" />
        <path
           class="cls-8"
           d="m 122.78,85.23 a 4.65,4.65 0 1 1 -3.37,-5.65 4.64,4.64 0 0 1 3.37,5.65 z"
           id="path44"
           inkscape:connector-curvature="0"
           style="fill:#ffdb8c" />
        <path
           class="cls-6"
           d="m 132.26,98.64 a 4.65,4.65 0 1 1 -3.38,-5.64 4.66,4.66 0 0 1 3.38,5.64 z"
           id="path46"
           inkscape:connector-curvature="0"
           style="fill:#2c2b4f" />
        <path
           class="cls-8"
           d="m 131.46,97.32 a 4.65,4.65 0 1 1 -3.37,-5.64 4.64,4.64 0 0 1 3.37,5.64 z"
           id="path48"
           inkscape:connector-curvature="0"
           style="fill:#ffdb8c" />
        <circle
           class="cls-6"
           cx="106.59"
           cy="92.190002"
           r="4.6500001"
           transform="matrix(0.86,-0.51,0.51,0.86,-32.1,67.17)"
           id="circle50"
           style="fill:#2c2b4f" />
        <circle
           class="cls-8"
           cx="105.79"
           cy="90.860001"
           r="4.6500001"
           transform="rotate(-30.63,105.7977,90.857916)"
           id="circle52"
           style="fill:#ffdb8c" />
        <path
           class="cls-6"
           d="m 118.7,106 a 4.65,4.65 0 1 1 -3.38,-5.65 4.64,4.64 0 0 1 3.38,5.65 z"
           id="path54"
           inkscape:connector-curvature="0"
           style="fill:#2c2b4f" />
        <path
           class="cls-8"
           d="m 117.9,104.62 a 4.65,4.65 0 1 1 -3.37,-5.62 4.64,4.64 0 0 1 3.37,5.62 z"
           id="path56"
           inkscape:connector-curvature="0"
           style="fill:#ffdb8c" />
        <path
           class="cls-2"
           d="m 82.56,107.14 a 8.78,8.78 0 0 1 14.26,-4.51 7.95,7.95 0 0 0 -14.41,5.25 c 0.04,-0.25 0.09,-0.49 0.15,-0.74 z"
           id="path58"
           inkscape:connector-curvature="0"
           style="fill:#2c4482" />
        <path
           class="cls-9"
           d="m 98.11,106.54 a 2.26,2.26 0 0 1 0.16,0.26 c 0,0 0,-0.09 0,-0.13 z"
           id="path60"
           inkscape:connector-curvature="0"
           style="fill:#575370" />
        <g
           class="cls-10"
           id="g66"
           style="opacity:0.3">
          <path
             class="cls-2"
             d="m 96.18,108.93 a 7.34,7.34 0 0 1 -12.42,1.36 6.63,6.63 0 0 0 12.66,-1.94 c -0.07,0.19 -0.15,0.39 -0.24,0.58 z"
             id="path62"
             inkscape:connector-curvature="0"
             style="fill:#2c4482" />
          <path
             class="cls-9"
             d="m 83.34,106.88 -0.09,-0.24 c 0,0 0,0.07 0,0.11 a 1.47,1.47 0 0 0 0.09,0.13 z"
             id="path64"
             inkscape:connector-curvature="0"
             style="fill:#575370" />
        </g>
        <path
           class="cls-7"
           d="m 122,77.37 a 18.34,18.34 0 0 1 5.52,2.39 17.11,17.11 0 0 0 -6.91,-3.55 c -9.77,-2.46 -19.82,4 -22.44,14.42 -0.14,0.55 -0.25,1.1 -0.34,1.65 C 100.92,81.4 111.57,74.76 122,77.37 Z"
           id="path68"
           inkscape:connector-curvature="0"
           style="fill:#223b72" />
        <polygon
           class="cls-9"
           points="130.93,83.66 130.93,83.65 "
           id="polygon70"
           style="fill:#575370" />
        <path
           class="cls-2"
           d="M 19.17,62.26 1.5,99.2 a 16.36,16.36 0 0 0 3.36,18.48 v 0 a 16.37,16.37 0 0 0 22.44,0.55 l 25,-22.39 z"
           id="path72"
           inkscape:connector-curvature="0"
           style="fill:#2c4482" />
        <g
           class="cls-3"
           id="g78"
           style="opacity:0.2;mix-blend-mode:multiply">
          <polygon
             class="cls-4"
             points="19.17,62.26 21.14,64.26 15.3,70.36 "
             id="polygon74"
             style="fill:#1c1c42" />
          <path
             class="cls-5"
             d="M 23.11,112.28 45.23,102.15 27.3,118.23 A 16.36,16.36 0 0 1 0.08,104.57 c 4.24,8.37 14.21,11.75 23.03,7.71 z"
             id="path76"
             inkscape:connector-curvature="0"
             style="fill:#283d54" />
        </g>
        <circle
           class="cls-2"
           cx="38.790001"
           cy="76.029999"
           r="23.969999"
           transform="rotate(-77.54,38.79905,76.028556)"
           id="circle80"
           style="fill:#2c4482" />
        <rect
           class="cls-2"
           x="37.93"
           y="43.889999"
           width="17.219999"
           height="6.0799999"
           rx="3.04"
           transform="rotate(-165.88,46.543314,46.93685)"
           id="rect82"
           style="fill:#2c4482" />
        <circle
           class="cls-5"
           cx="55.68"
           cy="103.07"
           r="14.22"
           transform="rotate(-10.65,55.703147,103.07675)"
           id="circle84"
           style="fill:#283d54" />
        <circle
           class="cls-2"
           cx="56.580002"
           cy="99.489998"
           r="14.22"
           transform="rotate(-6.99,56.542289,99.430096)"
           id="circle86"
           style="fill:#2c4482" />
        <path
           class="cls-2"
           d="m 56.06,62.33 0.34,-7.94 a 8,8 0 0 0 -4,-7.31 v 0 A 19.61,19.61 0 0 0 40.62,44.63 l -1.13,0.13 a 8,8 0 0 0 -6.28,4.34 l -3.36,6.63 z"
           id="path88"
           inkscape:connector-curvature="0"
           style="fill:#2c4482" />
        <circle
           class="cls-6"
           cx="38.049999"
           cy="74.779999"
           r="21.709999"
           transform="rotate(-69.86,38.052569,74.783175)"
           id="circle90"
           style="fill:#2c2b4f" />
        <circle
           class="cls-7"
           cx="38.049999"
           cy="74.779999"
           r="21.709999"
           transform="rotate(-69.86,38.052569,74.783175)"
           id="circle92"
           style="fill:#223b72" />
        <ellipse
           class="cls-2"
           cx="38.43"
           cy="75.809998"
           rx="20.809999"
           ry="21.1"
           transform="rotate(-75.88,38.424267,75.811015)"
           id="ellipse94"
           style="fill:#2c4482" />
        <path
           class="cls-2"
           d="M 56,65 A 20.69,20.69 0 0 1 17.08,78.23 20.69,20.69 0 1 0 56,65 Z"
           id="path96"
           inkscape:connector-curvature="0"
           style="fill:#2c4482" />
        <circle
           class="cls-2"
           cx="56.580002"
           cy="99.489998"
           r="11.08"
           transform="rotate(-31.37,56.586222,99.491536)"
           id="circle98"
           style="fill:#2c4482" />
        <path
           class="cls-11"
           d="M 41,66.56 A 1.29,1.29 0 1 1 42,68 1.22,1.22 0 0 1 41,66.56 Z"
           id="path100"
           inkscape:connector-curvature="0"
           style="opacity:0.5;fill:#575370" />
        <ellipse
           class="cls-11"
           cx="29.639999"
           cy="74.129997"
           rx="1.16"
           ry="1.28"
           transform="rotate(-75.88,29.64041,74.129199)"
           id="ellipse102"
           style="opacity:0.5;fill:#575370" />
        <path
           class="cls-11"
           d="m 37.49,86.64 a 1.28,1.28 0 0 1 2.47,0.62 1.28,1.28 0 0 1 -2.47,-0.62 z"
           id="path104"
           inkscape:connector-curvature="0"
           style="opacity:0.5;fill:#575370" />
        <path
           class="cls-11"
           d="m 50.93,79.68 a 0.9,0.9 0 1 1 0.67,1 0.85,0.85 0 0 1 -0.67,-1 z"
           id="path106"
           inkscape:connector-curvature="0"
           style="opacity:0.5;fill:#575370" />
        <path
           class="cls-6"
           d="M 44.83,70.41 42.34,71.8 A 1.51,1.51 0 0 1 40.7,71.38 L 39.16,69 a 1.51,1.51 0 0 1 -0.34,-1.37 l 1.45,-5.75 a 1.5,1.5 0 0 1 1.83,-1.09 l 4,1 a 1.5,1.5 0 0 1 1.09,1.83 l -1.44,5.75 a 1.54,1.54 0 0 1 -0.92,1.04 z"
           id="path108"
           inkscape:connector-curvature="0"
           style="fill:#2c2b4f" />
        <path
           class="cls-8"
           d="m 44,69.53 -2.49,1.38 A 1.51,1.51 0 0 1 39.87,70.5 L 38.33,68.1 A 1.52,1.52 0 0 1 37.99,66.73 L 39.39,61 a 1.51,1.51 0 0 1 1.83,-1.1 l 4,1 a 1.5,1.5 0 0 1 1.09,1.83 L 44.9,68.48 A 1.56,1.56 0 0 1 44,69.53 Z"
           id="path110"
           inkscape:connector-curvature="0"
           style="fill:#ffdb8c" />
        <path
           class="cls-6"
           d="m 41.93,81.94 -1.54,-2.4 a 1.51,1.51 0 0 0 -1.64,-0.42 l -2.49,1.39 a 1.54,1.54 0 0 0 -0.95,1 l -1.44,5.75 A 1.5,1.5 0 0 0 35,89.14 l 4,1 a 1.5,1.5 0 0 0 1.83,-1.09 l 1.45,-5.75 a 1.51,1.51 0 0 0 -0.35,-1.36 z"
           id="path112"
           inkscape:connector-curvature="0"
           style="fill:#2c2b4f" />
        <path
           class="cls-8"
           d="m 41.05,81.06 -1.54,-2.4 a 1.51,1.51 0 0 0 -1.64,-0.41 l -2.49,1.39 a 1.5,1.5 0 0 0 -1,1 L 33,86.44 a 1.5,1.5 0 0 0 1.09,1.83 l 4,1 a 1.52,1.52 0 0 0 1.83,-1.09 l 1.44,-5.75 a 1.51,1.51 0 0 0 -0.31,-1.37 z"
           id="path114"
           inkscape:connector-curvature="0"
           style="fill:#ffdb8c" />
        <path
           class="cls-6"
           d="m 44.72,79.74 -1.39,-2.49 a 1.51,1.51 0 0 1 0.41,-1.64 l 2.4,-1.54 a 1.52,1.52 0 0 1 1.37,-0.33 l 5.75,1.44 a 1.52,1.52 0 0 1 1.1,1.82 l -1,4 a 1.51,1.51 0 0 1 -1.83,1.1 l -5.75,-1.45 a 1.5,1.5 0 0 1 -1.06,-0.91 z"
           id="path116"
           inkscape:connector-curvature="0"
           style="fill:#2c2b4f" />
        <path
           class="cls-8"
           d="m 45.6,78.86 -1.39,-2.49 a 1.51,1.51 0 0 1 0.41,-1.64 L 47,73.19 a 1.54,1.54 0 0 1 1.38,-0.33 l 5.75,1.44 a 1.52,1.52 0 0 1 1.09,1.83 l -1,4 a 1.52,1.52 0 0 1 -1.83,1.1 L 46.64,79.78 A 1.5,1.5 0 0 1 45.6,78.86 Z"
           id="path118"
           inkscape:connector-curvature="0"
           style="fill:#ffdb8c" />
        <path
           class="cls-6"
           d="m 33.19,76.84 2.4,-1.54 A 1.5,1.5 0 0 0 36,73.67 l -1.39,-2.5 a 1.48,1.48 0 0 0 -1,-0.94 L 27.86,68.78 A 1.52,1.52 0 0 0 26,69.87 l -1,4 a 1.51,1.51 0 0 0 1.09,1.83 l 5.75,1.45 a 1.51,1.51 0 0 0 1.35,-0.31 z"
           id="path120"
           inkscape:connector-curvature="0"
           style="fill:#2c2b4f" />
        <path
           class="cls-8"
           d="m 34.06,76 2.4,-1.54 a 1.51,1.51 0 0 0 0.41,-1.64 L 35.49,70.33 A 1.52,1.52 0 0 0 34.44,69.39 L 28.69,67.9 A 1.51,1.51 0 0 0 26.86,69 l -1,4 a 1.51,1.51 0 0 0 1.1,1.83 l 5.75,1.45 A 1.52,1.52 0 0 0 34.06,76 Z"
           id="path122"
           inkscape:connector-curvature="0"
           style="fill:#ffdb8c" />
        <path
           class="cls-2"
           d="m 48.49,98.57 a 8.78,8.78 0 0 1 14.26,-4.51 7.95,7.95 0 0 0 -14.41,5.25 c 0.04,-0.25 0.09,-0.49 0.15,-0.74 z"
           id="path124"
           inkscape:connector-curvature="0"
           style="fill:#2c4482" />
        <path
           class="cls-9"
           d="m 64,98 c 0.06,0.09 0.11,0.18 0.16,0.27 0.05,0.09 0,-0.09 0,-0.13 z"
           id="path126"
           inkscape:connector-curvature="0"
           style="fill:#575370" />
        <g
           class="cls-10"
           id="g130"
           style="opacity:0.3">
          <path
             class="cls-9"
             d="m 49.27,98.31 -0.09,-0.24 c 0,0 0,0.07 0,0.11 z"
             id="path128"
             inkscape:connector-curvature="0"
             style="fill:#575370" />
        </g>
        <path
           class="cls-7"
           d="M 43.33,57.59 A 18.39,18.39 0 0 1 48.84,60 17.13,17.13 0 0 0 41.93,56.44 c -9.77,-2.45 -19.82,4 -22.44,14.43 -0.14,0.55 -0.25,1.1 -0.34,1.65 C 22.29,61.62 33,55 43.33,57.59 Z"
           id="path132"
           inkscape:connector-curvature="0"
           style="fill:#223b72" />
        <polygon
           class="cls-9"
           points="52.3,63.88 52.3,63.87 "
           id="polygon134"
           style="fill:#575370" />
        <path
           class="cls-7"
           d="m 49.4,64.52 a 1.33,1.33 0 1 0 1.61,-1 1.32,1.32 0 0 0 -1.61,1 z"
           id="path136"
           inkscape:connector-curvature="0"
           style="fill:#223b72" />
        <rect
           class="cls-4"
           x="67.07"
           y="84.040001"
           width="6.9699998"
           height="2.78"
           rx="0.91000003"
           transform="rotate(14.12,70.554488,85.460252)"
           id="rect138"
           style="fill:#1c1c42" />
        <rect
           class="cls-12"
           x="66.830002"
           y="82.940002"
           width="6.9699998"
           height="2.78"
           rx="0.91000003"
           transform="rotate(14.12,70.333744,84.339831)"
           id="rect140"
           style="fill:#413e5e" />
        <path
           class="cls-9"
           d="m 67.73,83.53 a 0.43,0.43 0 0 1 0.52,-0.31 l 5,1.26 0.13,0.07 v 0 A 0.43,0.43 0 0 0 73.1,84 l -5,-1.27 a 0.42,0.42 0 0 0 -0.51,0.31 l -0.3,1.2 a 0.41,0.41 0 0 0 0.17,0.45 z"
           id="path142"
           inkscape:connector-curvature="0"
           style="fill:#575370" />
        <rect
           class="cls-4"
           x="81.400002"
           y="87.650002"
           width="6.9699998"
           height="2.78"
           rx="0.91000003"
           transform="rotate(14.12,84.895654,89.054006)"
           id="rect144"
           style="fill:#1c1c42" />
        <rect
           class="cls-8"
           x="81.160004"
           y="86.550003"
           width="6.9699998"
           height="2.78"
           rx="0.91000003"
           transform="rotate(14.12,84.634538,87.938586)"
           id="rect146"
           style="fill:#ffdb8c" />
        <rect
           class="cls-4"
           x="72.529999"
           y="92.980003"
           width="6.9699998"
           height="2.78"
           rx="0.91000003"
           transform="rotate(14.12,76.003938,94.37734)"
           id="rect148"
           style="fill:#1c1c42" />
        <rect
           class="cls-8"
           x="72.290001"
           y="91.879997"
           width="6.9699998"
           height="2.78"
           rx="0.91000003"
           transform="rotate(14.12,75.788194,93.297292)"
           id="rect150"
           style="fill:#ffdb8c" />
        <circle
           class="cls-7"
           cx="40.52"
           cy="49.5"
           r="0.91000003"
           id="circle152"
           style="fill:#223b72" />
        <path
           class="cls-7"
           d="m 118.94,69.05 a 0.75,0.75 0 1 1 -0.54,-0.9 0.74,0.74 0 0 1 0.54,0.9 z"
           id="path154"
           inkscape:connector-curvature="0"
           style="fill:#223b72" />
        <path
           class="cls-13"
           d="m 126.83,133.67 a 3.63,3.63 0 1 1 2.64,4.41 3.63,3.63 0 0 1 -2.64,-4.41 z"
           id="path156"
           inkscape:connector-curvature="0"
           style="opacity:0.4;fill:#413e5e" />
        <path
           class="cls-13"
           d="m 130.57,125.48 a 1,1 0 1 1 0.76,1.27 1.05,1.05 0 0 1 -0.76,-1.27 z"
           id="path158"
           inkscape:connector-curvature="0"
           style="opacity:0.4;fill:#413e5e" />
        <rect
           class="cls-14"
           x="187.81"
           y="139.84"
           width="5.25"
           height="7.29"
           id="rect160"
           style="fill:#ffc2b0" />
        <polygon
           class="cls-14"
           points="177.4,139.84 172.15,139.84 170.91,147.12 176.16,147.12 "
           id="polygon162"
           style="fill:#ffc2b0" />
        <path
           class="cls-14"
           d="M 160.22,54.52 151,45.33 a 0.43,0.43 0 0 0 -0.43,-0.1 l -1.85,0.6 a 0.43,0.43 0 0 0 -0.24,0.6 l 7,13.2 a 3.36,3.36 0 0 0 5.18,0.95 l 3,-2.6 a 0.42,0.42 0 0 0 0,-0.64 l -3.4,-2.79 z"
           id="path164"
           inkscape:connector-curvature="0"
           style="fill:#ffc2b0" />
        <path
           class="cls-15"
           d="m 152.05,46.72 a 7.83,7.83 0 0 0 -2.1,-4.95 c -1.32,-1.21 -3.66,-1.74 -5.09,-0.65 v 0 l 5.89,8.78 z"
           id="path166"
           inkscape:connector-curvature="0"
           style="fill:#ffb8bc" />
        <path
           class="cls-14"
           d="m 171.09,52.36 -11.05,2 c 0,0 -1.26,7.24 -0.92,7 0.34,-0.24 13.88,-2.98 13.88,-2.98 z"
           id="path168"
           inkscape:connector-curvature="0"
           style="fill:#ffc2b0" />
        <path
           class="cls-16"
           d="m 181.94,56 c 0,0 -0.21,-6 -5.65,-5.53 A 72.35,72.35 0 0 0 165.71,52 l -0.55,10.16 z"
           id="path170"
           inkscape:connector-curvature="0"
           style="fill:#028fcc" />
        <path
           class="cls-16"
           d="m 185.79,49.05 -9.17,1.35 A 1.9,1.9 0 0 0 175,52.27 l -0.22,30.46 23.49,0.06 -1.66,-27.69 -0.76,-2.57 a 3.25,3.25 0 0 0 -2.61,-2.29 z"
           id="path172"
           inkscape:connector-curvature="0"
           style="fill:#028fcc" />
        <polygon
           class="cls-14"
           points="194.94,61.38 202.48,68.85 205.77,61.75 200.77,56.18 "
           id="polygon174"
           style="fill:#ffc2b0" />
        <path
           class="cls-16"
           d="m 191.83,56 a 3.89,3.89 0 0 1 4,-5.9 2.46,2.46 0 0 1 0.8,0.3 c 2.76,1.67 7.51,6.95 7.51,6.95 l -7.66,6.23 z"
           id="path176"
           inkscape:connector-curvature="0"
           style="fill:#028fcc" />
        <path
           class="cls-14"
           d="m 205.46,62 4,-13.08 2.91,0.78 -1.14,15.75 c 0,0 -1,7.5 -8.77,3.4 z"
           id="path178"
           inkscape:connector-curvature="0"
           style="fill:#ffc2b0" />
        <path
           class="cls-14"
           d="m 209.48,48.92 a 12.47,12.47 0 0 1 -0.28,-5.78 3.57,3.57 0 0 1 4,-2.51 v 0 l -0.93,10.45 z"
           id="path180"
           inkscape:connector-curvature="0"
           style="fill:#ffc2b0" />
        <path
           class="cls-17"
           d="m 179.67,32.85 c 0,0 -3.64,3.42 -0.06,4.66 z"
           id="path182"
           inkscape:connector-curvature="0"
           style="fill:#4a245e" />
        <path
           class="cls-18"
           d="m 182.07,38.74 a 3,3 0 0 1 -2.81,3.07 2.91,2.91 0 0 1 -3,-2.89 2.89,2.89 0 1 1 5.77,-0.18 z"
           id="path184"
           inkscape:connector-curvature="0"
           style="fill:#8ac9ff" />
        <path
           class="cls-14"
           d="m 182.49,44.29 -0.19,4.85 a 2.36,2.36 0 0 0 2.53,2.69 v 0 c 1.39,0 2.93,-0.57 2.93,-2.07 v -7.63 z"
           id="path186"
           inkscape:connector-curvature="0"
           style="fill:#ffc2b0" />
        <path
           class="cls-19"
           d="m 182.35,49.14 a 8.6,8.6 0 0 0 5.34,-5.53 c 0.44,-1.39 -5.19,0.19 -5.19,0.19 z"
           id="path188"
           inkscape:connector-curvature="0"
           style="fill:#ff808c" />
        <path
           class="cls-14"
           d="m 184.87,45.77 v 0 a 5.1,5.1 0 0 1 -5.52,-4.1 l -0.59,-4.85 a 5.36,5.36 0 0 1 4.37,-6 v 0 a 5.75,5.75 0 0 1 6.54,4.43 l 0.4,3.79 a 6.08,6.08 0 0 1 -5.2,6.73 z"
           id="path190"
           inkscape:connector-curvature="0"
           style="fill:#ffc2b0" />
        <path
           class="cls-20"
           d="m 176.2,31.28 a 6.34,6.34 0 0 1 2.47,-2.12 c 1.93,-0.94 4.06,-0.64 6.12,-0.66 a 6,6 0 0 1 5.28,2.74 2.24,2.24 0 0 1 2.3,2.16 c 0.36,3 -3.22,7.87 -3.22,7.87 0,0 -0.39,-3.85 -0.4,-3.87 a 5.3,5.3 0 0 1 -1.25,-0.4 2,2 0 0 1 -0.7,-0.86 4.67,4.67 0 0 1 -0.2,-2.13 10.16,10.16 0 0 0 -1.6,0.58 16,16 0 0 1 -7.48,1.57 2.59,2.59 0 0 1 -1.13,-0.29 2.23,2.23 0 0 1 -0.93,-1.69 4.35,4.35 0 0 1 0.74,-2.9 z"
           id="path192"
           inkscape:connector-curvature="0"
           style="fill:#1d3570" />
        <path
           class="cls-21"
           d="m 192.47,39.74 a 2,2 0 0 1 -1.89,2.07 2,2 0 1 1 1.89,-2.07 z"
           id="path194"
           inkscape:connector-curvature="0"
           style="fill:#ffba99" />
        <path
           class="cls-22"
           d="m 189.87,40.3 c 0,0 0,-1.45 1.32,-1.27"
           id="path196"
           inkscape:connector-curvature="0"
           style="fill:none;stroke:#312220;stroke-width:0.56px;stroke-linecap:round;stroke-linejoin:round" />
        <path
           class="cls-23"
           d="m 187.17,39 a 3.74,3.74 0 0 0 2.8,4.7 c 1.56,0.34 2.4,-1.31 2.87,-3.47 0.47,-2.16 -0.42,-4.19 -2,-4.53 -1.58,-0.34 -3.21,1.1 -3.67,3.3 z"
           id="path198"
           inkscape:connector-curvature="0"
           style="fill:#0485b2" />
        <path
           class="cls-16"
           d="m 188,39.13 c -0.47,2.16 0.42,4.19 2,4.53 1.58,0.34 3.21,-1.14 3.68,-3.3 0.47,-2.16 -0.42,-4.18 -2,-4.52 C 190.1,35.5 188.45,37 188,39.13 Z"
           id="path200"
           inkscape:connector-curvature="0"
           style="fill:#028fcc" />
        <path
           class="cls-16"
           d="m 191.59,36.55 a 12.75,12.75 0 0 0 -0.07,-3.87 5.77,5.77 0 0 0 -4.71,-4.77 l -0.57,-0.09 a 3.37,3.37 0 0 0 -2.07,0.3 2.93,2.93 0 0 0 -0.45,0.3 c 0,0 3.13,0.08 4.61,1.87 a 9.68,9.68 0 0 1 1.93,6.6 z"
           id="path202"
           inkscape:connector-curvature="0"
           style="fill:#028fcc" />
        <path
           class="cls-14"
           d="m 189.64,49.66 -3.85,-0.61 -5.13,0.75 c 0,0 -0.31,3 4,3.12 4.31,0.12 4.98,-3.26 4.98,-3.26 z"
           id="path204"
           inkscape:connector-curvature="0"
           style="fill:#ffc2b0" />
        <rect
           class="cls-24"
           x="175.45"
           y="82.790001"
           width="22.049999"
           height="2.51"
           id="rect206"
           style="fill:#323441" />
        <polygon
           class="cls-24"
           points="185.15,85.3 175.45,85.3 170.53,143.14 178.03,143.14 185.87,102.5 "
           id="polygon208"
           style="fill:#323441" />
        <polygon
           class="cls-24"
           points="182.51,85.3 197.5,82.79 193.78,144.3 187.06,144.3 "
           id="polygon210"
           style="fill:#323441" />
        <polygon
           class="cls-4"
           points="152.67,37.51 158.86,46.09 142.68,52.92 138.07,42.13 "
           id="polygon212"
           style="fill:#1c1c42" />
        <polygon
           class="cls-25"
           points="139.53,42.99 152.42,38.92 157.06,45.36 143.06,51.27 "
           id="polygon214"
           style="opacity:0.6;fill:#575370" />
        <polygon
           class="cls-9"
           points="147.34,40.52 150.4,39.56 149.77,48.43 147.05,49.58 "
           id="polygon216"
           style="fill:#575370" />
        <polygon
           class="cls-9"
           points="145.65,40.99 146.5,40.73 146.07,49.91 145.37,50.21 "
           id="polygon218"
           style="fill:#575370" />
        <path
           class="cls-16"
           d="m 181.51,149.16 h 12.25 v -2.26 a 0.66,0.66 0 0 0 -0.69,-0.58 5,5 0 0 1 -2.87,-0.83 1.56,1.56 0 0 0 -1.06,-0.4 h -2.06 l -6.4,2.16 a 1.71,1.71 0 0 0 -1.29,1.91 z"
           id="path220"
           inkscape:connector-curvature="0"
           style="fill:#028fcc" />
        <rect
           class="cls-16"
           x="179.35001"
           y="149.16"
           width="14.41"
           height="0.73000002"
           id="rect222"
           style="fill:#028fcc" />
        <path
           class="cls-16"
           d="m 165.09,148.42 h 12.25 v -2.26 a 0.66,0.66 0 0 0 -0.69,-0.58 5,5 0 0 1 -2.87,-0.82 1.56,1.56 0 0 0 -1.06,-0.4 h -2.07 l -6.39,2.16 a 1.7,1.7 0 0 0 -1.29,1.9 z"
           id="path224"
           inkscape:connector-curvature="0"
           style="fill:#028fcc" />
        <rect
           class="cls-16"
           x="162.92999"
           y="148.42"
           width="14.41"
           height="0.73000002"
           id="rect226"
           style="fill:#028fcc" />
        <rect
           class="cls-14"
           x="67.260002"
           y="89.620003"
           width="4.5999999"
           height="6.3800001"
           transform="rotate(-167.16,69.552944,92.817123)"
           id="rect228"
           style="fill:#ffc2b0" />
        <polygon
           class="cls-14"
           points="87.21,87.59 91.81,87.59 92.89,93.98 88.29,93.98 "
           id="polygon230"
           style="fill:#ffc2b0" />
        <path
           class="cls-14"
           d="M 90.7,27 101,22.07 a 0.37,0.37 0 0 1 0.38,0 l 1.35,1 a 0.38,0.38 0 0 1 0,0.57 l -9.65,8.85 a 2.94,2.94 0 0 1 -4.55,-0.74 l -1.69,-3 a 0.36,0.36 0 0 1 0.19,-0.53 L 90.67,27 Z"
           id="path232"
           inkscape:connector-curvature="0"
           style="fill:#ffc2b0" />
        <path
           class="cls-14"
           d="m 99.74,22.92 a 6.82,6.82 0 0 1 3.19,-3.47 c 1.44,-0.61 3.53,-0.36 4.38,0.95 v 0 l -7.43,5.53 z"
           id="path234"
           inkscape:connector-curvature="0"
           style="fill:#ffc2b0" />
        <path
           class="cls-14"
           d="m 82.36,22 8.55,4.87 c 0,0 -1.08,6.35 -1.29,6 C 89.41,32.52 79,26.4 79,26.4 Z"
           id="path236"
           inkscape:connector-curvature="0"
           style="fill:#ffc2b0" />
        <path
           class="cls-16"
           d="m 73,22.92 c 0,0 1.76,-5 6.17,-3.13 a 63.19,63.19 0 0 1 8.45,4.06 l -2.22,8.63 z"
           id="path238"
           inkscape:connector-curvature="0"
           style="fill:#028fcc" />
        <path
           class="cls-16"
           d="m 69.93,18.63 8,1.18 a 1.68,1.68 0 0 1 1.43,1.64 l 0.19,29 L 59,48.2 60.44,23.94 61.11,21.68 a 2.84,2.84 0 0 1 2.29,-2 z"
           id="path240"
           inkscape:connector-curvature="0"
           style="fill:#028fcc" />
        <polygon
           class="cls-14"
           points="61.4,29.95 55.3,35.98 52.42,29.76 56.8,24.88 "
           id="polygon242"
           style="fill:#ffc2b0" />
        <path
           class="cls-16"
           d="m 64.64,24.7 a 3.42,3.42 0 0 0 -3.5,-5.17 2.55,2.55 0 0 0 -0.7,0.27 c -2.41,1.46 -6.58,6.09 -6.58,6.09 l 6.72,5.45 z"
           id="path244"
           inkscape:connector-curvature="0"
           style="fill:#028fcc" />
        <path
           class="cls-20"
           d="m 75.29,4.45 c 0,0 3.19,3 0,4.07 z"
           id="path246"
           inkscape:connector-curvature="0"
           style="fill:#1d3570" />
        <path
           class="cls-23"
           d="m 73.19,9.6 a 2.53,2.53 0 1 0 2.6,-2.53 2.58,2.58 0 0 0 -2.6,2.53 z"
           id="path248"
           inkscape:connector-curvature="0"
           style="fill:#0485b2" />
        <path
           class="cls-14"
           d="M 72.81,14.47 73,18.71 a 2.07,2.07 0 0 1 -2.21,2.36 v 0 c -1.22,0 -2.57,-0.5 -2.57,-1.81 v -6.69 z"
           id="path250"
           inkscape:connector-curvature="0"
           style="fill:#ffc2b0" />
        <path
           class="cls-19"
           d="m 72.93,18.71 a 7.51,7.51 0 0 1 -4.67,-4.84 c -0.38,-1.22 4.55,0.16 4.55,0.16 z"
           id="path252"
           inkscape:connector-curvature="0"
           style="fill:#ff808c" />
        <path
           class="cls-14"
           d="m 70.73,15.76 v 0 a 4.47,4.47 0 0 0 4.84,-3.59 L 76.08,7.92 A 4.71,4.71 0 0 0 72.25,2.64 v 0 a 5.05,5.05 0 0 0 -5.72,3.89 l -0.36,3.32 a 5.33,5.33 0 0 0 4.56,5.91 z"
           id="path254"
           inkscape:connector-curvature="0"
           style="fill:#ffc2b0" />
        <path
           class="cls-20"
           d="M 78.52,3 A 1.52,1.52 0 0 0 77,2.14 1.56,1.56 0 0 0 76,0.56 1.32,1.32 0 0 0 74.57,0.78 1.51,1.51 0 0 0 73.66,0.21 1.11,1.11 0 0 0 72.66,0.53 0.59,0.59 0 0 0 72.12,0.25 2.17,2.17 0 0 0 71,0.56 a 1.52,1.52 0 0 1 -0.87,0.11 5,5 0 0 0 -2.54,0.89 4.34,4.34 0 0 0 -1.07,1 C 66.41,2.69 66.32,2.95 66.15,2.99 65.98,3.03 65.47,2.75 65.22,2.73 A 1,1 0 0 0 64.34,3.1 0.62,0.62 0 0 0 64.49,3.97 C 64.2,3.81 63.66,4.7 63.6,4.88 a 1.41,1.41 0 0 0 0.25,1.34 c 0.15,0.18 0.54,0.28 0.61,0.46 0.07,0.18 -0.31,0.62 -0.06,1 a 0.73,0.73 0 0 0 0.4,0.23 c 0.49,0.12 0.69,0 0.7,0.54 a 3,3 0 0 0 0.26,1.47 16,16 0 0 0 1.24,2 c 0,0 0.35,-3.37 0.35,-3.4 0,-0.03 0.9,-0.25 1,-0.27 0.45,-0.1 0.82,-0.24 1,-0.74 a 0.17,0.17 0 0 1 0.07,-0.13 c 0.08,-0.06 0.18,0 0.25,0.08 a 1.61,1.61 0 0 0 1.33,0.17 2.77,2.77 0 0 0 1.26,-0.82 3,3 0 0 0 0.69,0.52 1.42,1.42 0 0 0 2,-0.91 c 0.78,-0.1 1.62,0.19 2.33,-0.15 A 1.45,1.45 0 0 0 78,4.58 1.3,1.3 0 0 0 78.52,3 Z"
           id="path256"
           inkscape:connector-curvature="0"
           style="fill:#1d3570" />
        <path
           class="cls-21"
           d="m 64.07,10.48 a 1.75,1.75 0 0 0 1.66,1.81 1.76,1.76 0 1 0 -1.66,-1.81 z"
           id="path258"
           inkscape:connector-curvature="0"
           style="fill:#ffba99" />
        <path
           class="cls-22"
           d="m 66.35,11 c 0,0 0,-1.27 -1.15,-1.11"
           id="path260"
           inkscape:connector-curvature="0"
           style="fill:none;stroke:#312220;stroke-width:0.56px;stroke-linecap:round;stroke-linejoin:round" />
        <path
           class="cls-23"
           d="m 68.72,9.79 a 3.28,3.28 0 0 1 -2.45,4.12 c -1.38,0.3 -2.11,-1.15 -2.52,-3 -0.41,-1.85 0.37,-3.67 1.74,-4 1.37,-0.33 2.82,0.99 3.23,2.88 z"
           id="path262"
           inkscape:connector-curvature="0"
           style="fill:#0485b2" />
        <ellipse
           class="cls-16"
           cx="65.519997"
           cy="10.49"
           rx="2.54"
           ry="3.51"
           transform="rotate(-12.24,65.526183,10.469145)"
           id="ellipse264"
           style="fill:#028fcc" />
        <path
           class="cls-16"
           d="M 64.85,7.69 A 11,11 0 0 1 64.91,4.29 5.06,5.06 0 0 1 69,0.11 l 0.5,-0.07 a 3,3 0 0 1 1.81,0.25 2.33,2.33 0 0 1 0.4,0.27 c 0,0 -2.71,0.07 -4.01,1.64 A 8.45,8.45 0 0 0 66,8 Z"
           id="path266"
           inkscape:connector-curvature="0"
           style="fill:#028fcc" />
        <path
           class="cls-14"
           d="m 66.55,19.17 3.38,-0.54 4.49,0.66 c 0,0 0.27,2.62 -3.52,2.73 -3.79,0.11 -4.35,-2.85 -4.35,-2.85 z"
           id="path268"
           inkscape:connector-curvature="0"
           style="fill:#ffc2b0" />
        <rect
           class="cls-17"
           x="59.66"
           y="48.200001"
           width="19.32"
           height="2.2"
           transform="rotate(180,69.32,49.295)"
           id="rect270"
           style="fill:#4a245e" />
        <path
           class="cls-16"
           d="M 76.07,99.41 65.61,97 66.05,95.07 a 0.58,0.58 0 0 1 0.7,-0.36 4.35,4.35 0 0 0 2.62,-0.15 1.36,1.36 0 0 1 1,-0.13 l 1.76,0.4 5,3.09 a 1.5,1.5 0 0 1 0.74,1.88 v 0 z"
           id="path272"
           inkscape:connector-curvature="0"
           style="fill:#028fcc" />
        <rect
           class="cls-16"
           x="65.379997"
           y="98.419998"
           width="12.62"
           height="0.63999999"
           transform="rotate(-167.16,71.687637,98.738967)"
           id="rect274"
           style="fill:#028fcc" />
        <path
           class="cls-16"
           d="M 98,95.12 H 87.26 v -2 a 0.58,0.58 0 0 1 0.6,-0.51 4.35,4.35 0 0 0 2.52,-0.72 1.36,1.36 0 0 1 0.93,-0.36 h 1.81 l 5.6,1.9 a 1.5,1.5 0 0 1 1.13,1.67 H 98 Z"
           id="path276"
           inkscape:connector-curvature="0"
           style="fill:#028fcc" />
        <rect
           class="cls-16"
           x="87.260002"
           y="95.120003"
           width="12.62"
           height="0.63999999"
           transform="rotate(180,93.57,95.44)"
           id="rect278"
           style="fill:#028fcc" />
        <path
           class="cls-24"
           d="m 69.87,54.22 1.7,-6.06 13,0.23 a 5.16,5.16 0 0 1 5,4.19 l 5.88,37 h -9.24 l -5.49,-28 -11.9,0.42 z"
           id="path280"
           inkscape:connector-curvature="0"
           style="fill:#323441" />
        <path
           class="cls-24"
           d="m 57.71,52.27 1.16,-5.21 15.66,1.36 c 3.79,0.88 5.14,2.41 5.14,7.78 l -6,35.35 H 66.18 L 68,61.58 63.48,61 a 6.91,6.91 0 0 1 -5.72,-4.83 v 0 a 6.87,6.87 0 0 1 -0.05,-3.9 z"
           id="path282"
           inkscape:connector-curvature="0"
           style="fill:#323441" />
        <path
           class="cls-4"
           d="m 47.54,12.67 a 2.69,2.69 0 0 1 0.08,-2.35 13.19,13.19 0 0 1 2.74,-3 c 0.83,-0.79 1.68,-1.86 3,-1.74 A 4.79,4.79 0 0 1 55,6.11 c 0.48,0.25 0.9,0.6 1.36,0.89 a 1.18,1.18 0 0 1 0.3,0.29 0.44,0.44 0 0 1 0.08,0.11 v 0 a 0.47,0.47 0 0 0 0.05,0.1 0.14,0.14 0 0 0 0,0.06 v 0.11 0 a 0.78,0.78 0 0 1 0,0.16 V 8 a 0.28,0.28 0 0 1 0,0.13 v 0.05 a 1,1 0 0 1 0,0.17 1.25,1.25 0 0 1 -1.42,0.94 L 54,9 a 1.07,1.07 0 0 1 -1.45,1.39 l -0.43,0.45 A 1.08,1.08 0 0 1 52,12.09 1.06,1.06 0 0 1 50.85,12.35 l 0.3,1.43 a 1.24,1.24 0 0 1 -0.87,1.46 h -0.17 -0.23 -0.16 v 0 h -0.11 -0.07 -0.1 v 0 l -0.11,-0.07 a 1.07,1.07 0 0 1 -0.3,-0.3 v 0 C 48.65,14.32 48.2,13.78 47.87,13.2 a 3.39,3.39 0 0 1 -0.33,-0.53 z"
           id="path284"
           inkscape:connector-curvature="0"
           style="fill:#1c1c42" />
        <path
           class="cls-14"
           d="m 52.69,30 -3.52,-11.48 -2.55,0.69 1,13.79 c 0,0 0.85,6.58 7.68,3 z"
           id="path286"
           inkscape:connector-curvature="0"
           style="fill:#ffc2b0" />
        <path
           class="cls-14"
           d="m 49.17,18.52 a 11,11 0 0 0 0.25,-5.06 3.13,3.13 0 0 0 -3.52,-2.2 v 0 l 0.81,9.16 z"
           id="path288"
           inkscape:connector-curvature="0"
           style="fill:#ffc2b0" />
      </g>
    </g>
  </g>
</svg>
